<svg xmlns="http://www.w3.org/2000/svg" viewBox="0 0 108 108" width="216" height="216"><defs><clipPath id="c"><circle cx="54" cy="54" r="54"/></clipPath></defs><g clip-path="url(#c)"><rect width="108" height="108" fill="#EAF5EF"/><g transform="translate(14 21) scale(0.5)"><g id="ear-left" class="ear-l"><path d="M46 44 C24 36 10 52 14 72 C18 92 38 98 52 88 Z" fill="#A6D6C1"/><path d="M44 52 C30 48 22 58 25 71 C28 84 40 88 49 82 Z" fill="#F4B9B2"/></g><g id="ear-right" class="ear-r"><path d="M114 44 C136 36 150 52 146 72 C142 92 122 98 108 88 Z" fill="#A6D6C1"/><path d="M116 52 C130 48 138 58 135 71 C132 84 120 88 111 82 Z" fill="#F4B9B2"/></g><circle id="skull" cx="80" cy="64" r="36" fill="#8DC7AF"/><path id="hair" d="M76 29 C76 24 79 22 81 25 M81 28 C83 23 87 23 86 28" fill="none" stroke="#78B79C" stroke-width="2.4" stroke-linecap="round"/><ellipse id="cheek-left" cx="58" cy="76" rx="6.5" ry="4" fill="#F29E95" opacity="0.55"/><ellipse id="cheek-right" cx="102" cy="76" rx="6.5" ry="4" fill="#F29E95" opacity="0.55"/><g id="eyes" class="eyes"><ellipse cx="67" cy="62" rx="5.0" ry="6.5" fill="#1E2B26"/><circle cx="68.8" cy="59.6" r="1.9" fill="#FFFFFF"/><ellipse cx="93" cy="62" rx="5.0" ry="6.5" fill="#1E2B26"/><circle cx="94.8" cy="59.6" r="1.9" fill="#FFFFFF"/></g><path id="mouth" d="M64 82 Q68 87 73 84" fill="none" stroke="#1E2B26" stroke-width="2.2" stroke-linecap="round"/><g id="trunk" class="trunk"><path d="M80 70 C80 86 83 96 92 99 C98 101 102 97 100 92" fill="none" stroke="#78B79C" stroke-width="13" stroke-linecap="round"/><path d="M80 70 C80 86 83 96 92 99 C98 101 102 97 100 92" fill="none" stroke="#8DC7AF" stroke-width="10" stroke-linecap="round"/><circle cx="80" cy="70" r="6.2" fill="#8DC7AF"/><path d="M78 80 l5 0 M79 87 l5 -1" fill="none" stroke="#78B79C" stroke-width="1.6" stroke-linecap="round"/></g></g></g></svg>